<?xml version="1.0" encoding="UTF-8" standalone="no"?>
<!DOCTYPE svg PUBLIC "-//W3C//DTD SVG 1.1//EN" "http://www.w3.org/Graphics/SVG/1.1/DTD/svg11.dtd">
<svg width="100%" height="100%" viewBox="0 0 720 720" version="1.1" xmlns="http://www.w3.org/2000/svg" xmlns:xlink="http://www.w3.org/1999/xlink" xml:space="preserve" xmlns:serif="http://www.serif.com/" style="fill-rule:evenodd;clip-rule:evenodd;stroke-linejoin:round;stroke-miterlimit:2;">
    <g transform="matrix(0.666667,0,0,0.666667,0,0)">
        <g transform="matrix(2.96525,0,0,2.96525,-206.105,-213.499)">
            <g id="Layer-1" serif:id="Layer 1">
                <g transform="matrix(1,0,0,1,362.069,295.442)">
                    <path d="M0,-81.184L-0.964,-79.323L-0.756,-77.244C0.737,-62.116 -2.154,-49.729 -9.364,-40.346C-10.526,-38.835 -11.802,-37.398 -13.19,-36.038C-16.961,-32.353 -21.354,-29.424 -26.069,-27.118C-42.557,-19.021 -62.872,-18.51 -73.275,-19.786C-87.93,-21.562 -100.157,-16.838 -106.828,-6.813C-113.187,2.74 -113.319,15.354 -107.262,27.316C-106.913,28.006 -106.544,28.696 -106.157,29.376C-100.176,39.892 -100.582,49.162 -103.634,53.669C-105.552,56.503 -108.604,57.666 -112.714,57.146C-118.289,56.107 -125.366,53.971 -127.776,49.634C-128.569,48.198 -128.9,46.478 -128.9,44.551C-128.881,39.061 -126.084,31.974 -123.552,25.521C-121.162,19.436 -118.903,13.682 -118.45,8.409C-117.637,-1.125 -123.373,-10.772 -133.776,-17.395C-147.061,-25.861 -163.416,-26.863 -175.454,-19.956C-182.862,-15.704 -187.69,-9.307 -189.419,-1.446C-193.161,15.59 -181.69,35.093 -174.519,45.212C-168.415,53.82 -166.147,62.125 -168.594,66.869C-170.758,71.055 -177.23,73.36 -186.812,73.36C-198.774,73.36 -214.685,69.741 -214.685,38.513L-214.685,-59.461L-203.404,-56.693C-199.615,-55.757 -195.731,-57.675 -194.172,-61.247C-192.613,-64.819 -193.832,-68.967 -197.082,-71.121C-226.203,-90.387 -221.054,-127.275 -207.797,-153.004C-200.626,-166.922 -176.928,-186.141 -141.854,-195.448C-124.96,-199.927 -95.489,-204.405 -64.252,-193.757C-55.426,-190.752 -46.46,-186.547 -37.606,-180.783C27.855,-138.217 1.153,-83.471 0,-81.184M20.334,-115.133C19.323,-136.261 9.789,-166.865 -29.877,-192.661C-63.089,-214.26 -104.154,-220.109 -145.492,-209.149C-179.668,-200.087 -209.763,-180.132 -220.392,-159.495C-229.775,-141.288 -233.951,-121.899 -232.166,-104.9C-231.589,-99.42 -230.418,-94.233 -228.689,-89.367C-226.959,-84.51 -224.654,-79.975 -221.81,-75.798C-225.391,-76.677 -228.859,-73.965 -228.859,-70.271L-228.859,38.513C-228.859,81.165 -202.515,87.533 -186.812,87.533C-167.394,87.533 -159.344,79.832 -156.009,73.379C-150.963,63.618 -153.495,50.362 -162.963,37.011C-172.714,23.263 -177.429,10.015 -175.577,1.597C-174.708,-2.362 -172.355,-5.395 -168.405,-7.663C-159.845,-12.577 -148.676,-10.091 -141.391,-5.443C-135.694,-1.814 -132.226,3.146 -132.576,7.2C-132.85,10.422 -134.824,15.467 -136.743,20.334C-141.089,31.389 -146.494,45.146 -140.163,56.522C-135.987,64.025 -127.785,68.796 -115.095,71.111L-114.784,71.168C-105.231,72.472 -96.897,68.995 -91.899,61.615C-85.067,51.524 -85.814,36.481 -93.845,22.374C-98.286,14.57 -98.73,6.595 -95.036,1.039C-91.436,-4.366 -84.132,-6.822 -74.995,-5.707C-65.499,-4.555 -50.542,-4.668 -35.584,-8.608L-41.187,2.296L-100.686,118.005C-102.122,120.793 -105.968,121.142 -107.886,118.657L-144.944,70.516C-145.539,73.02 -146.428,75.429 -147.609,77.716C-148.733,79.889 -150.217,82.166 -152.182,84.358L-117.817,128.994C-110.173,138.925 -94.79,137.527 -89.055,126.377L-22.573,-2.92L-15.477,-16.715C-11.102,-19.247 -6.983,-22.28 -3.279,-25.899C9.543,-38.438 15.194,-55.521 13.521,-76.686C15.77,-81.827 21.222,-96.415 20.334,-115.133" style="fill:rgb(20,53,62);fill-rule:nonzero;"/>
                </g>
                <g transform="matrix(1,0,0,1,211.399,189.635)">
                    <path d="M0,-63.912C40.025,-88.347 70.8,-86.835 86.418,-87.95C55.181,-98.598 25.71,-94.12 8.816,-89.641C-26.258,-80.334 -49.956,-61.115 -57.127,-47.197C-70.384,-21.468 -75.533,15.42 -46.412,34.686C-46.412,34.686 -70.157,-23.868 0,-63.912" style="fill:rgb(233,201,155);fill-rule:nonzero;"/>
                </g>
                <g transform="matrix(1,0,0,1,354.189,283.763)">
                    <path d="M0,-60C-35.31,-31.899 -64.601,-35.679 -98.74,-38.627C-132.869,-41.575 -155.782,-20.91 -155.782,-20.91C-112.081,-26.759 -103.993,0 -103.993,0C-87.694,-25.342 -42.633,-13.701 -20.787,-24.095C1.068,-34.488 0,-60 0,-60" style="fill:rgb(233,201,155);fill-rule:nonzero;"/>
                </g>
                <g transform="matrix(1,0,0,1,359.82,141.21)">
                    <path d="M0,71.47C-0.59,71.04 -10.29,64.18 -29.61,64.22C-56.21,64.26 -68.7,86.48 -106.9,88.1C-108.58,88.17 -110.3,88.21 -112.06,88.2C-141.37,87.67 -153.84,76.3 -154.22,75.95C-153.46,76.24 -112.21,91.86 -77,70.14C-74.36,68.52 -71.77,66.68 -69.22,64.62L-80.27,56.68L-86.6,59.92L-102.1,67.86L-96.67,54.82L-92.67,45.22C-92.67,45.22 -95.17,47.17 -99.61,49.8C-106.13,53.63 -116.84,58.94 -129.99,61.66C-129.99,61.66 -114.82,50.84 -102.38,36.54C-99.29,33 -96.39,29.25 -93.91,25.4C-93.01,24.01 -94.35,22.27 -95.92,22.76C-97.76,23.31 -100.03,24.07 -102.49,25C-107.75,26.99 -113.86,29.77 -118.26,33.23L-101.98,18.05L-94.54,11.1C-91.31,8.09 -89.25,4.02 -88.84,-0.37C-88.82,-0.53 -88.8,-0.67 -88.79,-0.82C-88.54,-3.95 -92.08,-5.92 -94.6,-4.04C-95.83,-3.12 -97.24,-2.01 -98.83,-0.71C-101.45,1.42 -104.56,4.09 -108.16,7.37C-113.34,12.1 -124.03,22.21 -136.72,32.04C-154.66,45.92 -176.59,59.24 -192.58,56.02C-192.61,56.01 -192.62,56.01 -192.62,56.01C-192.62,56.01 -177.13,54.25 -155.04,37.55C-132.95,20.84 -91.05,-14.05 -84.99,-20.39L-51.17,36.06L-32.84,28.92L0,71.47Z" style="fill:rgb(20,53,62);fill-rule:nonzero;"/>
                </g>
                <g transform="matrix(1,0,0,1,252.92,229.43)">
                    <path d="M0,-0.12C0.12,-0.08 0.25,-0.04 0.38,0C0.17,-0.01 -0.04,-0.02 -0.24,-0.02L0,-0.12Z" style="fill:rgb(233,201,155);fill-rule:nonzero;"/>
                </g>
                <g transform="matrix(1,0,0,1,359.84,212.66)">
                    <path d="M0,0.05C0,0.05 -0.08,0.03 -0.25,0C-0.1,0.01 -0.02,0.02 -0.02,0.02C-0.01,0.03 -0.01,0.03 0,0.05" style="fill:rgb(233,201,155);fill-rule:nonzero;"/>
                </g>
                <g transform="matrix(0.0459725,-0.998943,-0.998943,-0.0459725,258.158,166.502)">
                    <path d="M0.252,-7.749C-3.706,-5.451 -7.593,-2.719 -11.266,0.196C-7.527,0.649 -3.6,0.84 0.252,0.843C1.296,-1.577 2.155,-3.808 2.797,-5.617C3.357,-7.163 1.676,-8.58 0.252,-7.749" style="fill:rgb(233,201,155);fill-rule:nonzero;"/>
                </g>
                <g transform="matrix(1,0,0,1,267.154,196.029)">
                    <path d="M0,-9.594L-4.001,0C-5.175,-1.407 -6.141,-3.105 -6.943,-5.024C-2.5,-7.652 0,-9.594 0,-9.594" style="fill:rgb(233,201,155);fill-rule:nonzero;"/>
                </g>
                <g transform="matrix(1,0,0,1,271.027,154.151)">
                    <path d="M0,-13.758C-0.012,-13.607 -0.023,-13.467 -0.046,-13.316C-0.453,-8.92 -2.512,-4.85 -5.745,-1.838L-13.188,5.105C-12.362,-3.245 -10.92,-10.455 -10.036,-13.653C-8.443,-14.956 -7.036,-16.061 -5.803,-16.979C-3.291,-18.863 0.256,-16.886 0,-13.758" style="fill:rgb(233,201,155);fill-rule:nonzero;"/>
                </g>
                <g transform="matrix(0.261015,-0.965335,-0.965335,-0.261015,285.353,196.549)">
                    <path d="M-7.593,-7.488C-10.244,-5.567 -12.695,-3.544 -14.945,-1.417C-11.494,-0.231 -8.05,2.893 -7.593,10.51L-2.809,5.25L-7.593,-7.488Z" style="fill:rgb(233,201,155);fill-rule:nonzero;"/>
                </g>
                <g transform="matrix(1,0,0,1,223.101,206.019)">
                    <path d="M0,-32.772C-22.189,0 -54.404,-8.396 -55.857,-8.792C-39.866,-5.57 -17.945,-18.886 0,-32.772" style="fill:rgb(233,201,155);fill-rule:nonzero;"/>
                </g>
                <g transform="matrix(1,0,0,1,359.82,229.61)">
                    <path d="M0,-16.93C0,-16.93 -0.08,-16.94 -0.23,-16.95C-0.25,-16.96 -0.28,-16.96 -0.3,-16.96C-2.69,-17.17 -18.85,-18.07 -34.32,-5.85C-50.94,7.29 -90.12,4.81 -106.52,-0.18C-106.65,-0.22 -106.78,-0.26 -106.9,-0.3C-68.7,-1.92 -56.21,-24.14 -29.61,-24.18C-10.29,-24.22 -0.59,-17.36 0,-16.93" style="fill:rgb(233,201,155);fill-rule:nonzero;"/>
                </g>
            </g>
        </g>
    </g>
</svg>
