<?xml version="1.0" standalone="no"?>
<!DOCTYPE svg PUBLIC "-//W3C//DTD SVG 20010904//EN"
 "http://www.w3.org/TR/2001/REC-SVG-20010904/DTD/svg10.dtd">
<svg version="1.0" xmlns="http://www.w3.org/2000/svg"
 width="700.000000pt" height="700.000000pt" viewBox="0 0 700.000000 700.000000"
 preserveAspectRatio="xMidYMid meet">
<metadata>
Created by potrace 1.14, written by Peter Selinger 2001-2017
</metadata>
<g transform="translate(0.000000,700.000000) scale(0.100000,-0.100000)"
fill="#000000" stroke="none">
<path d="M3410 6823 c-547 -34 -1154 -252 -1581 -569 -137 -102 -310 -276
-383 -386 -147 -223 -261 -569 -287 -875 -23 -271 36 -558 156 -758 19 -32 35
-60 35 -64 0 -4 -12 -8 -27 -9 -39 -3 -73 -29 -89 -69 -13 -31 -15 -185 -11
-1172 4 -1251 2 -1198 68 -1394 98 -295 309 -459 638 -497 256 -30 511 42 635
180 65 72 98 157 104 265 9 172 -36 302 -185 530 -153 237 -227 408 -240 559
-11 141 41 237 164 298 118 58 299 50 437 -19 119 -59 207 -149 224 -230 12
-55 0 -103 -73 -298 -79 -209 -101 -282 -115 -388 -23 -163 29 -320 138 -417
131 -118 390 -198 548 -171 128 23 226 87 295 194 68 105 95 236 78 383 -12
111 -40 196 -109 339 -63 129 -79 182 -80 261 0 121 61 219 168 267 79 36 150
42 328 28 182 -15 392 -2 569 34 65 13 120 23 121 22 2 -4 -1251 -2435 -1264
-2450 -18 -21 -56 -29 -85 -18 -16 6 -156 180 -381 473 -196 255 -361 464
-366 466 -6 2 -10 -2 -10 -10 -1 -27 -48 -128 -88 -187 l-41 -60 321 -418
c176 -230 339 -437 362 -461 22 -24 66 -55 96 -70 73 -36 199 -39 272 -5 113
52 72 -20 854 1501 l719 1399 68 43 c146 94 288 251 368 407 83 163 120 329
124 558 3 143 6 167 29 226 93 244 123 582 77 851 -77 445 -339 847 -763 1169
-200 153 -471 303 -692 384 -347 127 -736 182 -1126 158z m562 -293 c505 -74
990 -324 1343 -692 173 -180 288 -366 360 -582 48 -142 65 -254 65 -421 0
-207 -35 -382 -109 -550 -24 -55 -26 -67 -19 -145 8 -97 -4 -259 -27 -355 -71
-307 -311 -533 -678 -639 -192 -56 -245 -61 -612 -61 -302 0 -347 -2 -400 -18
-186 -58 -317 -175 -381 -343 -21 -55 -28 -92 -32 -180 -6 -143 15 -227 97
-395 76 -155 95 -227 89 -335 -7 -140 -64 -204 -181 -204 -57 0 -166 29 -228
61 -43 22 -96 80 -105 115 -16 62 4 177 51 309 140 389 139 383 139 480 -1
137 -43 233 -153 349 -150 157 -365 248 -591 249 -190 1 -336 -53 -459 -169
-258 -243 -224 -628 100 -1126 110 -169 150 -258 157 -349 8 -116 -44 -177
-183 -213 -70 -19 -259 -21 -337 -5 -180 37 -290 153 -351 367 -22 77 -22 83
-25 1123 l-3 1046 122 -29 c75 -18 133 -27 153 -24 75 14 126 75 126 151 0 54
-25 98 -78 136 -171 121 -275 256 -340 439 -86 247 -74 547 34 864 85 246 195
416 363 562 380 330 961 560 1523 604 153 12 415 2 570 -20z"/>
<path d="M3885 6003 c-180 -163 -799 -676 -1121 -928 -350 -273 -572 -400
-814 -466 l-65 -18 91 0 c240 -2 532 133 932 431 160 119 306 244 552 469 58
53 152 135 209 183 110 91 135 101 180 70 21 -15 23 -22 19 -78 -6 -65 -30
-123 -74 -175 -22 -26 -318 -306 -438 -414 l-31 -28 45 27 c123 74 365 168
393 153 27 -15 21 -35 -33 -114 -107 -153 -324 -373 -544 -548 -48 -39 -84
-73 -79 -74 19 -7 248 69 356 117 95 42 237 122 315 177 27 19 32 33 -58 -177
-34 -80 -70 -166 -81 -192 -18 -45 -15 -59 6 -39 6 4 96 52 201 105 l192 98
107 -77 106 -77 -73 -54 c-88 -64 -263 -154 -372 -190 -312 -102 -686 -109
-1035 -19 -163 42 -150 40 -116 15 56 -40 180 -98 276 -128 184 -59 398 -83
628 -70 268 15 449 70 792 239 290 143 398 185 532 205 178 27 425 -3 582 -72
44 -19 86 -38 93 -41 7 -3 -126 175 -295 395 -169 220 -312 401 -316 401 -4 1
-85 -29 -178 -65 -94 -36 -172 -64 -174 -63 -2 2 -146 243 -320 534 -175 292
-321 533 -324 537 -3 3 -33 -18 -66 -49z"/>
</g>
</svg>
